<svg version="1.2" xmlns="http://www.w3.org/2000/svg" viewBox="0 0 650 929" width="650" height="929">
	<title>New Project</title>
	<style>
		.s0 { fill: #ffffff } 
		.s1 { fill: #000000 } 
	</style>
	<path id="Layer 2" class="s0" d="m392 0c0 0-141.1 108-235.5 223.9-118.5 145.5-160 268.6-156 420 2.8 106.9 103 289.3 316.5 285 242-5 328-175.4 332-274 4-98.6-17.5-176.8-63-237.9-45.5-61.1-188-276.4-194-417z"/>
	<path id="Layer 3" class="s1" d="m130 339c0 0-79.7 83.7-81 244-1 120.9 56 190.9 82 221 29.3 33.9 53 16.1 41-11-12-27.1-74.7-104.9-71-205.1 2-54.1 3-106 78-235 22.9-39.5 7-73-49-13.9z"/>
</svg>